PathFileType	4	(X/Y/Z)	45_2_68_p1_0-320_filt_butterworth.trc
DataRate	CameraRate	NumFrames	NumMarkers	Units	OrigDataRate	OrigDataStartFrame	OrigNumFrames
54.0	54.0	5	27	m	54.0	200	320
Frame#	Time	RHip			RKnee			RAnkle			RBigToe			RSmallToe			RHeel			LHip			LKnee			LAnkle			LBigToe			LSmallToe			LHeel			Neck			Head			Nose			RShoulder			RElbow			RWrist			RThumb			RIndex			RPinky			LShoulder			LElbow			LWrist			LThumb			LIndex			LPinky			
		X1	Y1	Z1	X2	Y2	Z2	X3	Y3	Z3	X4	Y4	Z4	X5	Y5	Z5	X6	Y6	Z6	X7	Y7	Z7	X8	Y8	Z8	X9	Y9	Z9	X10	Y10	Z10	X11	Y11	Z11	X12	Y12	Z12	X13	Y13	Z13	X14	Y14	Z14	X15	Y15	Z15	X16	Y16	Z16	X17	Y17	Z17	X18	Y18	Z18	X19	Y19	Z19	X20	Y20	Z20	X21	Y21	Z21	X22	Y22	Z22	X23	Y23	Z23	X24	Y24	Z24	X25	Y25	Z25	X26	Y26	Z26	X27	Y27	Z27	
200	3.703703703703704	0.5687821888006043	0.5864249444395929	0.6565190501472091	0.5730570712767589	0.16402339815775496	0.7124471323247923	0.5945480193569426	-0.21597025450077895	0.7441821371353246	0.5946656604026013	-0.2689365978599413	0.6467157937372283	0.6487361869884206	-0.25885843954085375	0.6582158360284563	0.5758161665111717	-0.3068558546944999	0.8346211057040368	0.3493376617848327	0.5690255388659187	0.6289805725246895	0.3883695817792384	0.11412963669011145	0.7317376314359245	0.40760187264410425	-0.2672304441352415	0.7774340178705456	0.4353127924317581	-0.2529426791669453	0.5981141505673638	0.37884745902752837	-0.28097030578825366	0.6605465705876049	0.4294419802447854	-0.3216074595989782	0.8168967103495582	0.4242796122492464	1.0898618546758374	0.7435703324438248	0.4056066367745995	1.3541394376460734	0.6146568682970494	0.42827191195477277	1.1964531381799766	0.5968444366246514	0.5548104963095062	1.092362119345009	0.7543464743478993	0.732150995104021	1.205400983135736	0.6506153435828601	0.6900744291505307	1.3837046948463256	0.6628244059918451	0.6490457451192273	1.4892659230757843	0.6646001776300376	0.6729081104340282	1.504650867190906	0.6515755416936789	0.7242004828080393	1.4719744486365423	0.6626457223977408	0.2565949389323691	1.0662079035174947	0.7168099088949662	0.09583264294838627	1.1372064422689427	0.6021284769757898	0.15341070516293837	1.3229483307494656	0.6278329955909794	0.18345048225278715	1.3854330624750586	0.6143565755619643	0.17510180569232633	1.4250668685647658	0.6280573626274197	0.1330656159213087	1.4027737022167848	0.6184517334673223	
201	3.7222222222222223	0.5687823676780837	0.5855643494450136	0.6573239295647479	0.5738437620818848	0.16401069056379539	0.7133072219730431	0.5942903307471749	-0.21538963031561903	0.7429459442849858	0.5946058085518248	-0.26881153902184773	0.6464139998910763	0.6488001305146726	-0.25951297259941425	0.6577770651125399	0.575299334884654	-0.30573074281984475	0.8327808682957193	0.34935673571192777	0.5686499936282967	0.6293525531064109	0.3881022077643035	0.11238707756103805	0.7341467281974288	0.4075427253496263	-0.26774679966500287	0.777461259195038	0.4349339339772442	-0.25347410801998305	0.5993282344158829	0.37886809131831567	-0.28091416555837523	0.6604500834068101	0.4295201895977962	-0.3219342502855318	0.816679129989739	0.42439847019983	1.0898186351417158	0.7436062953649945	0.4047751870917832	1.3541687648437002	0.6167390855465289	0.427542311341547	1.1959072851277674	0.5991158963839501	0.5557318123263959	1.0931199915791656	0.7542963193016359	0.7373037595471845	1.200320802470626	0.6539523762622578	0.6994197351829707	1.3824767776713431	0.659864518437311	0.6559847255743749	1.487363131064474	0.6645266275584011	0.6834432907378076	1.504236700000332	0.6492822781891143	0.7313226877817962	1.4700116315573164	0.6684385354375295	0.2560574929386399	1.065081303459738	0.7180483225348134	0.09463340428669934	1.1365552559086556	0.6032373086264272	0.1477045247244675	1.3209460881221229	0.6271306178448308	0.17353358421794546	1.3840584015003177	0.6195181302143925	0.16586735061399868	1.4251919742816215	0.6275290843107209	0.12246231503200547	1.4017633806198389	0.6188860847465693	
202	3.740740740740741	0.5686169369364018	0.584320907938743	0.6585409353353506	0.5746554220768444	0.1641703251101629	0.7139451718413852	0.5940053561644046	-0.21474680787202324	0.7415703609190544	0.5946481146548895	-0.26889978707262	0.6464159133593386	0.6489039271916097	-0.2602389650395659	0.6574200642814463	0.5748657585067469	-0.30484421213204194	0.8312566019754731	0.34934983476294623	0.568079041309499	0.629858971807236	0.3879125563357228	0.11078465926240341	0.7365691931999785	0.40746088013200593	-0.2681396777901535	0.7774935820686458	0.434272763455657	-0.25439521419565264	0.6014445217669602	0.37888881182121253	-0.2808743949998851	0.6603713637707199	0.42970439104470154	-0.32217928485048763	0.8163053109260046	0.4243145390741644	1.0898050586080985	0.7435537922087876	0.4038448146174132	1.354239001007298	0.6189850181811352	0.42681758997199404	1.1955117049856845	0.6012726574129789	0.5563677721362243	1.0934197654897582	0.7544811537460668	0.7426285952123276	1.192088796173861	0.6555279048478347	0.7074103965364249	1.3782490425712535	0.6588742117313463	0.6593300732488068	1.4787108422272688	0.6661118484840389	0.6884373382835965	1.5008709419960122	0.6483964633074624	0.7350172827602953	1.4656150004427808	0.6744104959158136	0.2552626270443703	1.0635408570307194	0.7199616422639251	0.09271397334578041	1.134765286038246	0.6052029045175392	0.143097641108186	1.3168838229377227	0.6269197072729599	0.16862347739190975	1.3805668426181286	0.6249586513671364	0.1617417536479851	1.4229748567473808	0.6273099949384909	0.11405177623701994	1.396803550713217	0.6234777100853829	
203	3.759259259259259	0.5684018279695653	0.5827806140645222	0.6600989981368703	0.5754480935104649	0.16453798052885024	0.714196035279282	0.5937438587553012	-0.21418873472965907	0.7403233773698268	0.5947811623093351	-0.26918936934718546	0.6467148768704334	0.6490424030397677	-0.2609969577520824	0.6571406179212238	0.5745736630790451	-0.3042411972540182	0.8302991000588894	0.3493221388747061	0.567325499991951	0.6304442143158211	0.38773750408613483	0.10928885717330483	0.7390764849451866	0.407389126495515	-0.26838564623572286	0.777576123152023	0.4334485633412347	-0.2555425138111993	0.6040800622108012	0.37890097398999323	-0.28085196500431625	0.6603218341575686	0.42987181321191226	-0.32243773497945666	0.8159450148784636	0.4242011902892341	1.0898275427877249	0.7434897433241324	0.4030333241881052	1.3542523710375238	0.6215741807911549	0.4263518393246837	1.1953052964863402	0.6030209544071878	0.5567054467852719	1.0930709074664777	0.754760768971982	0.7477231955048822	1.1821298459066498	0.655892839717922	0.7124148126989676	1.370914376848587	0.6601155955920863	0.6606798823848318	1.466238885873368	0.6683107262382363	0.6887720861481506	1.4945416707233465	0.6501212503286455	0.7363741412850069	1.4588651585156074	0.6776401119595646	0.2541985346587127	1.061715793829452	0.7224140049037937	0.0901580993576579	1.131277064033245	0.6087821038406069	0.1400916291328596	1.310899238888522	0.6267879267249044	0.16809825105166598	1.374905422157073	0.6291011175407961	0.16159830715949536	1.417758963204315	0.6278393254073825	0.10890048066865207	1.3883299053146965	0.6315520751778257	
204	3.7777777777777777	0.5682924293464965	0.5811036049158478	0.6617674148033793	0.5762187828297932	0.16509415618948065	0.7140374357102186	0.5935436988230544	-0.21383819440236884	0.7394389614865289	0.5949893209006982	-0.26966285549970487	0.6472920712312621	0.6491696322268079	-0.26158182024307575	0.656973160769509	0.5744019646075706	-0.303884852808132	0.8298145132890491	0.3492958668442328	0.5664739263559271	0.6310413402337252	0.3875528939594738	0.10782196710908848	0.7416569281157619	0.40734352313853595	-0.2685391189265019	0.777711724274332	0.4325860210029405	-0.2567508153221409	0.6068342268997761	0.37889481117638835	-0.28084596043363896	0.6603131981949448	0.4298887061634639	-0.3228194197791879	0.8157791177556462	0.424151996087204	1.0898382147712087	0.7436089094715783	0.4025776476529739	1.3540196152494715	0.6243822872780089	0.42623640109074945	1.1953137866516066	0.6040759760841107	0.556881925732991	1.092231306874814	0.7548049267951805	0.7521084185125395	1.1720023210665662	0.655382467927763	0.7132964308068939	1.3607657485064197	0.6631013183110263	0.6604522276198744	1.4523430268319368	0.6716359680680446	0.685494136692353	1.485379668374634	0.6552689374960896	0.7361630534013754	1.4503872504124258	0.677121805079275	0.2529963342735972	1.0597890808351038	0.7247173274239689	0.08731470871452181	1.1260206146584137	0.6134315914672159	0.1390999996875817	1.3031744003793417	0.6267046154479154	0.17047999402677086	1.3671070539814554	0.6321729610427481	0.16390494469101669	1.4091367118229274	0.6304753887271136	0.10738137602871387	1.377707015248616	0.6412315627332453	
